<svg id="Layer_1" data-name="Layer 1" xmlns="http://www.w3.org/2000/svg" 
viewBox="0 0 316 257">
<defs><style>.cls-1{fill:#fff;}.cls-2{fill:#a9c632;}.cls-3{fill:#1cc6d3;}.cls-4{fill:#ea5353;}</style></defs><path class="cls-1" d="M157,238.09H303.08c1.92,0,1.92,0,1.92-1.83V17C305,15,305,15,303,15h-292C9,15,9,15,9,17.15Q9,126.53,9,235.91c0,2.38-.24,2.17,2.11,2.17Z"/><path class="cls-2" d="M157,238.09H11.12c-2.35,0-2.11.21-2.11-2.17Q9,126.53,9,17.15C9,15,9,15,11.06,15H303c2,0,2,0,2,1.92V236.26c0,1.82,0,1.83-1.92,1.83ZM156.63,23H19.32c-1.8,0-1.8,0-1.81,1.79q-.23,34.68-.46,69.34-.27,43.84-.51,87.68-.15,23.85-.3,47.7c0,.92.21,1.41,1.22,1.29a10.07,10.07,0,0,1,1.1,0H291.93c2.82,0,2.41.32,2.43-2.41q.64-101.8,1.25-203.61c0-1.77,0-1.77-1.82-1.77Z"/><path class="cls-3" d="M156.51,22H294.78c1.84,0,1.84,0,1.83,1.78Q296,126.4,295.35,229c0,2.76.39,2.43-2.45,2.43H17.34a10.28,10.28,0,0,0-1.11,0c-1,.12-1.24-.37-1.23-1.3q.18-24,.3-48.08.27-44.19.52-88.38.21-34.93.46-69.89A1.83,1.83,0,0,1,18.11,22Z"/><path class="cls-4" d="M227.41,60l-4.24-2.17,3.94-14.36L223,45.63l1.85-6.76,9.84-3.55L238,37Z"/><path class="cls-4" d="M267,62H252.11l-.44-.72c1-2.12,4.65-10.12,5.45-12,1-2.13,1.33-3.28,1.09-4.76a2.79,2.79,0,0,0-3.57-2.27,6.28,6.28,0,0,0-3.79,2.69L250,37a12.57,12.57,0,0,1,5-2c4.48-1,9,2.88,9,8,0,3.06-1.62,5.18-2.81,7.8-.5,1.08-1.53,3.19-2.52,5.07L269,53Z"/><path class="cls-4" d="M260,95l-8,1c2.51-2.36,6.14-8.64,8-11l-.4-.28c-.9.42-.6.83-1.6,1.28-3.61,1.63-10.83-2.85-10-7,1-5,5.43-7.17,10.5-7.17S267,74.48,267,79,263.83,90.94,260,95Zm1.93-16.15A3.46,3.46,0,1,0,258.5,82,3.32,3.32,0,0,0,261.93,78.85Z"/><path class="cls-4" d="M42.32,126.13h0A4.81,4.81,0,0,1,40,119.74l6.15-13.15-5.31,3.08,3.85-8.23,6.65-3.5,3.41,1.6Z"/><path class="cls-4" d="M64.06,123l-2.62,6.54C57.51,141.33,51,140,47.5,135.36c-2.76-3.71-5.27-7.94-1.2-16.63l.87-1.86c4.12-8.8,9.37-11.77,13.56-9.81S66.67,113.84,64.06,123Zm-6.51-1.19c2.49-5.32,2.42-8.43.61-9.27S54,113.66,51.47,119l-.87,1.85c-2.5,5.35-2.35,8.42-.62,9.23s4.21-1,6.71-6.38Z"/><path class="cls-4" d="M46.57,174.19H42.38L38,159l-3,1,2-9,2-5h6Z"/><path class="cls-4" d="M55,179c-4.41,0-7-8.35-7-13.15a7.53,7.53,0,0,1,2.93-6.39c-1.32-1.19-2.52-.9-3.93-2.46-3.9-4.31,2.11-13,8-13,7,0,7,4,7,8,0,2.13-1.6,6.27-2.93,7.49,1.89,1.32,4.1-.15,4.93,6.51C65,174,59.41,179,55,179Zm2.91-13.52c0-2.2-1.29-3.72-2.94-3.72s-2.86,1.52-2.86,3.72,1.32,3.82,2.86,3.82S57.91,167.67,57.91,165.48Zm-.74-10.62c0-1.66-1-2.88-2.2-2.88s-2.14,1.22-2.14,2.88,1,3.07,2.14,3.07S57.17,156.58,57.17,154.86Z"/><path class="cls-4" d="M69,92c-3,2-9.23,3-11.49,3L53.89,89.7A10.72,10.72,0,0,0,59.39,88c3.38-2.25,4.56-5.25,3-7.46s-4.52-2.1-7.46-.09l-1.52,1-3.25-5.16,1.34-.9c2.23-1.53,3-4,1.81-5.74s-3.25-1.65-5.46-.15a10.32,10.32,0,0,0-3.43,3.76l-3.39-5.64a16.54,16.54,0,0,1,4.45-4.07c4.63-3.21,10.06-2.57,12.76,1.39a9.17,9.17,0,0,1,1,8.08c3.34-.44,8.1.25,10.76,2.91C77,83,75.86,87.43,69,92Z"/><path class="cls-4" d="M95.92,83.77l-1,4.42L89.47,87l1-4.41L79.89,80.21l-.17-1.38,16.62-18.9L101,61,97.11,78.44l2.8.63-2.4,5.05Zm-4.29-6.54,1.76-7.92-6,7Z"/><path class="cls-4" d="M127.89,94.8a91.11,91.11,0,0,1-9.65-2l-.92-5.39a19.49,19.49,0,0,0,8.53.23c4-.68,6.45-2.86,6-5.37-.38-2.23-3.64-3.43-8.46-2.61a24.26,24.26,0,0,0-5.62,1.66l1.5-15.18,18.3-3.12-1,5.75-11.26,1.92-.53,3.74.34-.06c8.62-1.47,13.55,1.37,14.42,6.48C140.53,86.6,136.76,95.91,127.89,94.8Z"/><path class="cls-4" d="M163,93c-5.89-1.79-7.19-10.36-5.53-15.83s8.07-9.44,14.15-13l7.5,2.28a96.63,96.63,0,0,0-10.83,6.27l.1.14a8.12,8.12,0,0,1,3.76.27c4.31,1.31,6,5.67,5.51,10.13C177,89,169,94.82,163,93Zm.38-13.86a4.18,4.18,0,0,0,3,5,4,4,0,1,0,2.32-7.64A4.18,4.18,0,0,0,163.38,79.14Z"/><path class="cls-4" d="M200,105l-6-11,11.52-18.89L194,71l1-5,19.5,5.94L205,86c0,.06-2,3-2,3l-2,5"/><path class="cls-4" d="M231,101c-6.32,0-10-6-8.27-11.65.85-2.78,1.21-5.38,3.41-6.78a6.92,6.92,0,0,1-2.36-5.46c0-4.2,2.57-7.61,7.06-7.61S238,72.91,238,77.11a6.89,6.89,0,0,1-2.36,5.49c2.2,1.4,2.44,4,3.41,6.75A8.63,8.63,0,0,1,231,101Zm3.25-12c0-2.34-1.5-3.95-3.41-3.95s-3.33,1.61-3.33,3.95S229,93,230.84,93,234.25,91.29,234.25,89Zm-.86-11.27a2.57,2.57,0,1,0-5,0c0,1.79,1.13,3.26,2.5,3.26S233.39,79.52,233.39,77.69Z"/><path class="cls-4" d="M88.87,129,84,131.17l-6.18-13.66-1.94,5.17L73,116.26l2.7-6.32,3.83-1.73Z"/><path class="cls-4" d="M99.58,124.12l-4.88,2.21-6.18-13.66-2,5.17-2.91-6.43,2.7-6.31,3.83-1.73Z"/><path class="cls-4" d="M111.75,127.26l-3.9-1.24,5.06-15.89-4.17,3.24,2.39-7.47,5.25-3.75,3.06,1Z"/><path class="cls-4" d="M127,138l-13.59-10.21v-.92c1.66-1.65,8-7.78,9.46-9.28,1.69-1.64,2.47-2.6,3-4.19s0-3.48-1.55-4a4.56,4.56,0,0,0-4,.84l1.86-5.79a7.27,7.27,0,0,1,4.29.05c3.69,1.21,5,5.36,3.53,9.85-1,3.24-2.79,4.71-4.85,6.73-.86.83-2.58,2.42-4.16,3.8l6.08,1.94Z"/><path class="cls-4" d="M148.81,134.5l-5.54-1.41,4.79-18.81-5.29,3.87-.67-11,9.64-2.35,4.36,1.11Z"/><path class="cls-4" d="M156.88,137.54c-1.74-.82-4.55-1.49-5.8-3l1.46-5.71a8.48,8.48,0,0,0,4.08,2.67c3.3.89,5.89-.17,6.49-2.54s-1.11-4.32-4-5.07l-1.51-.38,1.56-5.35,1.32.34c2.21.56,4.22-.44,4.7-2.31s-.72-3.2-2.89-3.76a8.16,8.16,0,0,0-4.31,0l1.79-5.74a12.92,12.92,0,0,1,5.07.48c4.6,1.13,9.58,4.85,8.49,9.1-.67,2.52-4.9,5-7.1,5.93,2.11,2,5.61,5.79,5.4,9.83C171.31,137.75,167.76,142.62,156.88,137.54Z"/><path class="cls-4" d="M188.74,131.56h-3.53l-1.44-13.29-2.57,2.5v-4.51l6.21-6.26h2.77Z"/><path class="cls-4" d="M202.81,127.25l1.44,5.75H198.5l-.14-4.63-5.61.32h0a3.12,3.12,0,0,1-1.34-4.27l6-11.13h4.42v9.35h3.24l2,3.17Zm-4.45-4.61V118.4l-2.73,4.24Z"/><path class="cls-4" d="M220.65,128l-7.17,8.32,7.6-23.13-5.16,3,2.84-7.74,6.51-3.38,3.85,1.41Z"/><path class="cls-4" d="M228.62,134.64c-1.41-1-3.7-5.93-4.91-7.24l1.42-3.86a12.23,12.23,0,0,0,4.91,3.13c2.58,1,4.82.38,5.48-1.42.59-1.6-.89-3.53-4-4.68a15.55,15.55,0,0,0-3.89-.88l6.39-9.44,11.85,4.35L243.19,118l-7.3-2.68-1.66,2.27c.08,0,.13.08.22.08,8.17.35,10.83,9.23,8.91,14.46C241.93,136.05,234.94,138.94,228.62,134.64Z"/><path class="cls-4" d="M256.37,135.22h-.12l-3.49-10.87-2,3.77L249.1,123l2.71-4.59,3.14-1,5.69,11.72A4.26,4.26,0,0,1,256.37,135.22Z"/><path class="cls-4" d="M271,132.84c-4.74,1.52-7.54-1.16-10.16-5.2-2.13-3.28.08-10.17,2-14.58l7-3.16c-1.3,2.62-4.07,8.54-4.9,11l.11,0a5.42,5.42,0,0,1,2.15-1.3c2.86-.92,6,1.78,6.93,3.71C276.74,128.31,274.27,131.79,271,132.84Zm-4.79-6.53c1.05,3.25.59.87,2.15,1.11,1.88.29.87-.66,1.1-2.15.29-1.88-.61-.86-2.15-1.1C265.46,123.88,265.76,124.81,266.24,126.31Z"/><path class="cls-4" d="M78,179l-5.36-5.16a3,3,0,0,1-.92-2.16V155.49L67,160v-8.22L72,141l6.16,5.41Z"/><path class="cls-4" d="M89,178.65,81,181c3.17-3.77,7.65-11.53,10-15.3l1.64-3.45c-1.14.67-3.24,4-4.64,4.63C81,170,77.49,159.7,79,153c1.37-6.07,1.82-9,8-11,5.75-1.83,13,.16,15,11.08C103.55,161.55,93.84,172.16,89,178.65Zm6.59-27.56a4.36,4.36,0,0,0-8.71,0,4.36,4.36,0,0,0,8.71,0Z"/><path class="cls-4" d="M138.37,165.93l-.59,1.77C135,176,131,179.42,127.55,178.27S121,165,123,158l2-5c5-8,11-8,14-5C141.61,150.61,141.16,157.54,138.37,165.93Zm-3.58-1.11c1.69-5.07,1.47-5.82,0-6.31s-1.28-.41-3,4.66l-.59,1.77c-1.69,5.09-1.64,7.59-.23,8.06s1.51-1.31,3.21-6.41Z"/><path class="cls-4" d="M164.79,178.25l-8.94,3.08-.58-1c0-2.73.18-13,.16-15.45a16.41,16.41,0,0,0-.75-6.18c-.72-2.07-2.15-3.63-3.47-3.17-.86.29-1.61,1.18-2,3.32l-2.45-7.15a4.78,4.78,0,0,1,2.73-2.59c3.08-1,6.47,2.5,8.38,8,1.37,4,1.19,6.6,1.15,10,0,1.4-.1,4.1-.23,6.51l5-1.73Z"/><path class="cls-4" d="M174.09,172.93l-5,3.84-6.75-19.59-.59,5.92-3.18-9.22,1-7.12,5.11-1.25Z"/><path class="cls-4" d="M226.34,168,217,169.89l-.4-.82c.49-2.21,2.41-10.53,2.8-12.51a10.77,10.77,0,0,0,.33-5.06c-.35-1.73-1.5-3.09-2.87-2.82-.9.18-1.79.85-2.54,2.56l-1.17-6a5.43,5.43,0,0,1,3.12-1.91c3.22-.61,5.95,2.48,6.88,7.11.66,3.33,0,5.43-.58,8.15-.26,1.13-.81,3.32-1.35,5.26l5.26-1Z"/><path class="cls-4" d="M238,168c-1.14.23-8.84,0-10-.77l-1-5a4.26,4.26,0,0,0,3,.79,3.24,3.24,0,0,0,2.65-4.1,3.07,3.07,0,0,0-3.7-2.69l-.91.18-.83-4.71.8-.16c1.34-.27,2.1-1.71,1.77-3.34a2.22,2.22,0,0,0-2.69-2,3.75,3.75,0,0,0-2.28,1.39l-.83-5.1a5.71,5.71,0,0,1,2.83-1.26c2.79-.6,4.78-.08,7.44,2.59,1.86,1.85,1.86,5.57-2.06,8.8,1.73.87,8.18,4.35,9.5,7A5.76,5.76,0,0,1,238,168Z"/><path class="cls-4" d="M254.83,178.38,244,174.47,242,168c1.83-1.83,11.86-6,13.47-7.7,1.85-1.82,2.73-2.89,3.36-4.66s.3-3.89-1.31-4.47c-1-.37-8.72-.36-10.52.83l6-8c1.58-.5,5.81,1.24,7.1,1.7,3.72,1.38,4.72,6,2.92,11-1.29,3.62-3.21,5.25-5.48,7.49-.94.93-2.83,2.69-4.56,4.23l6.12,2.2Z"/><path class="cls-4" d="M270.74,173.62,269.17,178l-3.91-1.4,1.57-4.37-7.53-2.7.12-1.38,16-21.74,4.37,2.63-7.15,19.33,2,.71-2.76,5Zm-2-6.67,5.25-13.8-8.29,12.71Z"/><path class="cls-4" d="M55.91,219c-1.61,0-3.87-2.48-5.37-3.5v-5.17a9.19,9.19,0,0,0,5.37,1.57c2.59,0,4.39-1.64,4.39-4.05,0-2.15-1.93-3.78-5.07-3.78a10.87,10.87,0,0,0-3.74.65l2.59-13.92H66L64.75,196H57.41l-.74,3.4h.22c5.62,0,11.11,4.7,11.11,9.6C68,219,61.72,219,55.91,219Z"/><path class="cls-4" d="M104,209c-5.34,0-14.31-5.89-14.31-10.8S93,184.43,97.16,180H104c-2.68,2.57-4.41,9.32-6.41,11.86l.12.08a7.16,7.16,0,0,1,3.19-.71c3.91,0,7.41,3.32,9.13,6.77C112,202,109.44,209,104,209Zm-8.9-10.66a3.62,3.62,0,0,0,3.76,3.4,3.44,3.44,0,1,0,0-6.86A3.61,3.61,0,0,0,95.1,198.34Z"/><path class="cls-4" d="M126.85,211.82l-8.28,3-.5-.78c.07-2.28.42-10.87.45-12.92A12,12,0,0,0,118,196c-.61-1.7-1.9-2.93-3.12-2.49-.8.29-1.51,1.06-1.9,2.87l-2.1-5.86a4.75,4.75,0,0,1,2.56-2.29c2.85-1,5.89,1.79,7.53,6.33,1.18,3.27,1,5.46.86,8.27-.05,1.16-.18,3.43-.35,5.45l4.66-1.69Z"/><path class="cls-4" d="M133.16,216h-6.71l5.5-17.15h-6.41l-4.35-8.43,21.32,5Z"/><path class="cls-4" d="M169.61,217.85c-3.88.59-11.09-1.35-9.45-7.59.51-1.93,2-6.07,3.55-7.27a4.49,4.49,0,0,1-2.34-3.42,5.42,5.42,0,0,1,10.71-1.63,4.55,4.55,0,0,1-1.22,4c1.8.69,4.53,4.14,5.55,5.85C179.13,212.36,173.8,217.21,169.61,217.85Zm.89-11.46a2.58,2.58,0,1,0-5.09.77,2.58,2.58,0,1,0,5.09-.77Zm-1.81-7.54a2,2,0,0,0-2.25-1.77,2,2,0,0,0-1.57,2.35,2,2,0,1,0,3.82-.58Z"/><path class="cls-4" d="M202.59,215h-3.54c1.4-2,2.82-8.22,3.86-10.26l0,3c-.5.36-1.05-2.38-1.67-2.44-3.19-.26-6.69-4.44-6.69-7.5,0-3.4,2.92-7.22,5.75-7.22s6.75,5.29,6.75,9.19S204.73,211.49,202.59,215Zm1.58-15.38c0-1.47-.88-2.7-1.92-2.7s-1.94,1.23-1.94,2.7.85,2.74,1.94,2.74S204.17,201.16,204.17,199.62Z"/><path class="cls-4" d="M220,214c-1.12,0-4.79-2.31-5.71-3.42v-5.73c.74,1,4.09,3.53,4.7,3.53,2,0,3.3-1.57,3.3-4s-1.25-3.8-3-3.8h-2.9l.11-5.42h2.79c1.33,0,2.33-1.43,2.33-3.31s-.87-2.84-2.18-2.84c-.74,0-4.63,1.23-5.44,2l.18-5.84a20.11,20.11,0,0,1,5.94-1.77c2.77,0,6.87,1.26,6.87,5.53,0,2.54-1,7-3.91,8.31,1.48,1.35,4.91,5.35,4.91,8.69A8,8,0,0,1,220,214Z"/><path class="cls-4" d="M241,194v3c0,9.38-1.73,14-5,14s-8.35-5.84-8.35-15.23v-2c0-9.49,2.44-14.3,5.66-14.3S241,184.5,241,194Zm-5.34-.15c0-5.73-1-8.46-2.35-8.46s-2.33,2.73-2.33,8.46v2c0,5.77,1,8.42,2.33,8.42s2.35-2.65,2.35-8.42Z"/><path class="cls-4" d="M116.17,179.83,102,173.68l-.1-.92c1.85-1.78,8.92-8.44,10.53-10.06,1.87-1.78,2.72-2.81,3.15-4.42a2.92,2.92,0,0,0-2.4-3.81,6.66,6.66,0,0,0-4.81,1.19l2.71-8.46a12.38,12.38,0,0,1,5.65,0c4.7.86,7.28,6.66,5,11.91-1.35,3.14-3.84,4.64-6.14,6.83-1,.9-2.88,2.63-4.66,4.15l11.13,1.33Z"/><path class="cls-4" d="M189.57,168.3l-12.75-5.52-.09-.82c1.66-1.6,8-7.59,9.45-9,1.69-1.6,2.44-2.52,2.83-4a2.62,2.62,0,0,0-2.15-3.42,6,6,0,0,0-4.32,1.07L185,139a11.16,11.16,0,0,1,5.08,0c4.22.77,6.54,6,4.52,10.7-1.21,2.82-3.45,4.16-5.51,6.13-.86.8-2.59,2.36-4.19,3.73l10,1.19Z"/><path class="cls-4" d="M201,180.86l-14.19-6.15-.1-.92c1.85-1.78,8.92-8.45,10.52-10.07,1.88-1.77,2.72-2.8,3.15-4.42a2.91,2.91,0,0,0-2.39-3.8,6.64,6.64,0,0,0-4.82,1.19l2.71-8.46a12.57,12.57,0,0,1,5.66,0c4.7.87,7.28,6.66,5,11.92-1.34,3.14-3.84,4.64-6.14,6.82-.95.9-2.88,2.64-4.66,4.16l11.13,1.33Z"/><path class="cls-4" d="M47,214.86,32.8,208.71l-.1-.92c1.85-1.78,8.92-8.45,10.52-10.07,1.88-1.77,2.72-2.8,3.15-4.42A2.91,2.91,0,0,0,44,189.5a6.64,6.64,0,0,0-4.82,1.19l2.71-8.46a12.57,12.57,0,0,1,5.66,0c4.7.87,7.28,6.66,5,11.92-1.34,3.14-3.84,4.64-6.14,6.82-1,.9-2.88,2.64-4.66,4.16l11.13,1.33Z"/><path class="cls-4" d="M86.1,207.14,93,204.61l0,10L80,217l-.53-.7c.42-2.45,2.09-11.68,2.41-13.86.44-2.45.53-3.75,0-5.31s-2-2.65-3.59-1.88a5.79,5.79,0,0,0-2.8,3.51l-2.31-8.41a10,10,0,0,1,4-3c3.75-1.76,12,2,10.89,7.55"/><path class="cls-4" d="M155.65,213.92,142.9,208.4l-.09-.83c1.66-1.6,8-7.58,9.45-9,1.69-1.59,2.45-2.51,2.83-4a2.62,2.62,0,0,0-2.15-3.42,5.9,5.9,0,0,0-4.32,1.07l2.43-7.6a11.31,11.31,0,0,1,5.08,0c4.22.78,6.54,6,4.52,10.7-1.21,2.82-3.45,4.17-5.51,6.13-.86.81-2.59,2.37-4.18,3.73l10,1.19Z"/><path class="cls-4" d="M197,212l-9,2.73-.63-.45c.14-2.11.77-10.13.85-12,.16-2.13.1-3.21-.61-4.37a2.66,2.66,0,0,0-3.93-.66,6.15,6.15,0,0,0-2.48,3.6l-3.38-6.36a12.24,12.24,0,0,1,3.79-3.43,7.36,7.36,0,0,1,10.66,3.55c1,2.57.28,4.92.08,7.54-.08,1.08-.3,3.21-.56,5.14L196,204Z"/></svg>