<svg id="Layer_1" data-name="Layer 1" xmlns="http://www.w3.org/2000/svg" viewBox="0 0 313 234"><defs><style>.cls-1{fill:#1cc6d3;}.cls-2{fill:#a9c632;}.cls-3{fill:#fff;}</style></defs><path class="cls-1" d="M232.45,85.2c.06,1,.11,1.64.14,2.28.49,13.25,1.07,26.49,1.4,39.75a8.21,8.21,0,0,0,3.38,6.92c14.86,12.06,29.55,24.34,44.3,36.54,3.69,3.06,3.66,3,7.86.7a2.53,2.53,0,0,0,1.51-2.71q-.68-49.19-1.3-98.36c0-1.47-1.76-4.88-.4-5.25,5.11-1.4,5.57-.57,10.65-2.07,3.3-1,0-1.48,3-5-.1-.31-.18-1.83-.3-1.77-1.79.81,1.78-.6,3.19-1.69-20.78-10-41.48-20.21-62.38-30-4.27-2-6.44-4.28-5.6-9a7.83,7.83,0,0,0-.05-1.74c-.15-3.14-1.83-4.37-4.88-3.54L174.36,26.16,25.26,66.66C19.89,68.12,14.52,69.55,9.17,71c-.91.26-2.07.28-2,1.83.09,4.59,0,9.19.13,13.77a2.85,2.85,0,0,0,1.19,2c6.63,4.27,13.27,8.54,20,12.63a4.36,4.36,0,0,1,2.26,4.06Q32.07,144.64,33.5,184a3.14,3.14,0,0,0,.94,2.08q24.17,20.55,48.38,41c1.09.93,1.87,1.28,3.09.15A8.66,8.66,0,0,1,89,225.65c1.1-.4,1.34-1,1.33-2.13Q89.6,176.2,89,128.85c0-1.35.34-1.88,1.65-2.25,6.66-1.86,13.28-3.85,19.92-5.79l102.87-30Z"/><path class="cls-2" d="M304.43,63c-5.08,1.5-8.5,2.45-13.61,3.85-1.36.37-1.1,2-1.08,3.47q.67,49.17,1.3,98.36a2.53,2.53,0,0,1-1.51,2.71c-4.2,2.28-4.17,2.36-7.86-.7-14.75-12.2-29.44-24.48-44.3-36.54a8.21,8.21,0,0,1-3.38-6.92c-.33-13.26-.91-26.5-1.4-39.75,0-.64-.08-1.28-.14-2.28l-19,5.58-102.87,30c-6.64,1.94-13.26,3.93-19.92,5.79-1.31.37-1.67.9-1.65,2.25q.69,47.34,1.32,94.67c0,1.18-.23,1.73-1.33,2.13a8.66,8.66,0,0,0-3.06,1.62c-1.22,1.13-2,.78-3.09-.15q-24.18-20.53-48.38-41A3.14,3.14,0,0,1,33.5,184q-1.44-39.36-2.78-78.72a4.36,4.36,0,0,0-2.26-4.06c-6.74-4.09-13.38-8.36-20-12.63a2.85,2.85,0,0,1-1.19-2c-.12-4.58,0-9.18-.13-13.77,0-1.55,1.13-1.57,2-1.83,5.35-1.49,10.72-2.92,16.09-4.38l149.1-40.5,58.57-15.91c3-.83,4.73.4,4.88,3.54a7.83,7.83,0,0,1,.05,1.74c-.84,4.71,1.33,7,5.6,9,20.9,9.78,41.6,20,62.38,30m-81.51-40.8c-3.74,1-7.49,2-11.22,3-7.34,2-14.67,4-22,6l-14.79,4.06L177,28.1c-2.77-2-5,.65-7.55.91a2.88,2.88,0,0,0,2,.35c1.87-.38,3.72-.84,5.58-1.27.1-.08.19-.21.3-.24L187.51,25c3.42-.94,6.81-2,10.27-2.76,3.27-.71,6.34-2,9.62-2.76,5.84-1.3,11.57-3.07,17.51-4.69-.26-.48-.44-.8-.6-1.11a7.91,7.91,0,0,0,5.8-.33c.67-.26,1.31-.62,2-.86,1-.34,1.94-.61,2.91-.91l-.24-.84ZM42,89.83c.23.4.27.55.36.61,10.74,6.9,21.48,13.82,32.26,20.66a3.62,3.62,0,0,0,2.54.29c2.56-.63,5.07-1.44,7.6-2.2q28-8.44,56-16.89,41.8-12.54,83.63-25,20.82-6.23,41.63-12.48c2.1-.63,4.18-1.31,6.27-2,0-.23.05-.46.07-.69-1.41-.81-2.77-1.7-4.23-2.42q-14.49-7.16-29-14.23a4.1,4.1,0,0,0-2.36-.67c-4,.93-7.9,2-11.85,3.08l0,.54,12.18,7.67c-2.42,1.84-3.6,1.93-5.81.58L221.2,40.57c-1.93-1.17-3.37-1.06-5.55.53l12.91,8.15c-2.23,1.67-3.47,1.93-5.14.94a108,108,0,0,1-11.17-6.94c-1.56-1.21-2.64-1-4.05-.55-2.82.8-5.63,1.63-9,2.6l13,8.2c-2.41,1.8-3.62,1.91-5.81.6-3.59-2.16-7.22-4.27-10.72-6.57-1.43-1-2.52-.78-4.08.21L204.78,56c-2,.8-3.43,1.91-5.16.88-4-2.36-8.05-4.66-11.89-7.24-1.55-1-2.44-.52-3.94.34l12.88,8.12c-1.65.89-3,2.19-4.79,1.14-3.94-2.33-7.85-4.72-11.76-7.09-.52-.31-1.09-1.08-1.47-1-3.37.85-6.71,1.84-10.6,2.95l13.43,8.45c-1.93.75-3.26,2.05-5.13.93-4-2.39-8-4.65-11.88-7.26-1.34-.91-2-.62-3.33.12,4.37,2.74,8.52,5.35,12.78,8-2.94,1.84-3.78,1.83-6.28.28q-5.41-3.36-10.88-6.66a1.92,1.92,0,0,0-1.22-.34c-2.9.76-5.78,1.6-8.66,2.41l-.11.51,12.64,8c-2,1.78-3.45,2-5.5.74a121.45,121.45,0,0,1-10.52-6.52c-1.92-1.44-3.29-.79-5.47-.07l13,8.22c-2.36,1.8-3.55,1.92-5.63.67-3.53-2.14-7.2-4.08-10.52-6.52-2.11-1.55-3.59-.45-6,.23l13.27,8.37c-2.69,1.79-3.81,1.85-6.09.42-3.82-2.4-7.63-4.82-11.45-7.21a1.32,1.32,0,0,0-.87-.24c-3.38.94-6.75,1.91-10.64,3l13.28,8.36c-2,1-3.48,2-5.44.8-3.79-2.34-7.73-4.45-11.37-7-1.73-1.21-2.69-.27-4,.52l12.65,8c-2.22,1.4-4,1.86-6.14.43-3.69-2.48-7.52-4.73-11.31-7.07a1.33,1.33,0,0,0-.86-.27c-2.67.74-5.33,1.52-8.52,2.45l13.31,8.38c-1.92,1-3.4,2-5.3.86-3.86-2.35-7.85-4.5-11.54-7.08-1.72-1.21-2.69-.37-4.49.24l13,8.18c-2.22,1.77-3.52,1.92-5.56.7C87,85,83.36,82.81,79.74,80.58c-1.87-1.16-1.88-1.2-4,.09l12.47,7.86c-2.42,1.55-4.3,1.67-6.45.23-3.37-2.26-6.91-4.27-10.41-6.34A2.42,2.42,0,0,0,69.78,82c-2.22.55-4.4,1.23-7.11,2l12.5,7.84c-1.64,1.69-3.41,2-5.22.94-3.49-2.08-7-4.14-10.38-6.38-1.63-1.07-3-1-4.77.09C59,89.15,63,91.66,67.05,94.21c-2,1.81-3.42,2-5.5.76-3.54-2.13-7-4.31-10.6-6.41A3.31,3.31,0,0,0,48.86,88C46.61,88.47,44.4,89.17,42,89.83Zm-9.8,14c0,1.57,0,2.85,0,4.12q1,37,2.07,74a4.52,4.52,0,0,0,1.83,3.6q22.53,19.31,45,38.66c.81.69,1.64,1.37,2.78,2.31-.61-32.65-1.2-64.84-1.81-97.3a37.49,37.49,0,0,0-4,1.13,5.57,5.57,0,0,1-5.57-.78q-19.13-12.37-38.33-24.62C33.62,104.6,33.07,104.29,32.21,103.78ZM283.39,70.63a2.7,2.7,0,0,0-.68,0q-24.07,7-48.12,14.08a2.07,2.07,0,0,0-1,1.63c.12,6.14.32,12.28.54,18.41.28,7.88.65,15.75.88,23.63a5.26,5.26,0,0,0,2.19,4.23q21.06,17.4,42.06,34.86c1.76,1.46,3.55,2.88,5.68,4.61C284.42,137.93,283.9,104.29,283.39,70.63ZM74.21,124.52l.31-.64L10.65,83c.88-.31,1.34-.5,1.82-.63Q52.55,71.51,92.64,60.6q35-9.52,69.89-19.07,36.16-9.85,72.36-19.63c1-.27,1.59-.69,1.54-1.84-.07-1.61-.06-3.23,0-4.85s-.68-1.84-2.08-1.46c-9.11,2.44-18.24,4.8-27.35,7.25q-16.69,4.48-33.37,9.07-7.53,2.05-15,4.21c-4.39,1.26-8.75,2.65-13.16,3.84-4.08,1.1-8.24,1.92-12.32,3-2.91.79-5.7,2-8.61,2.77-3.28.89-6.65,1.42-9.93,2.28-7.92,2.09-15.81,4.29-23.72,6.43L74.48,57.06c-2.33.63-4.57,1.54-7,2-3.45.64-6.81,1.8-10.21,2.73-4.34,1.19-8.71,2.32-13,3.56-2.65.76-5.24,1.72-7.88,2.53-1.1.33-2.25.5-3.38.74a15.45,15.45,0,0,1-2.5.53c-4.42,1.11-8.84,2.27-13.26,3.42a20.52,20.52,0,0,0-2.77.83,6.69,6.69,0,0,0-2.54,1.41c-1.27,1.45-.86,4.59.57,6a3,3,0,0,1,.26.45l-2,.11c-.12,1.27-.24,2.45-.37,3.75l-1.62.67c1.52,1.86.7,1.14,1.59,1.73l.3.29V88c.75.54,1.28,1,1.85,1.33,3.8,2.4,7.59,4.8,11.41,7.17,2,1.21,4,2.34,5.92,3.54,3,1.85,6,3.73,9,5.6.87.54,1.79,1,2.6,1.64a27.7,27.7,0,0,0,3.26,2.64,39.68,39.68,0,0,1,7.12,4.5c2.85,2.4,6.27,4.12,9.47,6.07a2.2,2.2,0,0,0,1.14.19c3.48,3.38,7.52,5.27,11.38,7.51M97.13,48.67l.19.68,38.52-10.46-.18-.67ZM12,71.86l.1.56,18.14-4.9L30.11,67ZM51.94,61l.17.58,15.11-4.06-.16-.62ZM9.75,74c-.13,0-1-.13-1.13-.13V82.6l1.13-.07ZM96.11,49.69,96,49.06l-4,1.07.14.56Zm47.66-13.55.15.57,3.58-1-.2-.72Z"/><path class="cls-3" d="M42,89.83c2.39-.66,4.6-1.36,6.85-1.85a3.31,3.31,0,0,1,2.09.58c3.56,2.1,7.06,4.28,10.6,6.41,2.08,1.24,3.48,1,5.5-.76C63,91.66,59,89.15,54.8,86.5c1.77-1.09,3.14-1.16,4.77-.09C63,88.65,66.46,90.71,70,92.79c1.81,1.08,3.58.75,5.22-.94L62.67,84c2.71-.77,4.89-1.45,7.11-2a2.42,2.42,0,0,1,1.57.41c3.5,2.07,7,4.08,10.41,6.34,2.15,1.44,4,1.32,6.45-.23L75.74,80.67c2.12-1.29,2.13-1.25,4-.09C83.36,82.81,87,85,90.66,87.2c2,1.22,3.34,1.07,5.56-.7l-13-8.18c1.8-.61,2.77-1.45,4.49-.24,3.69,2.58,7.68,4.73,11.54,7.08,1.9,1.15,3.38.13,5.3-.86L91.26,75.92c3.19-.93,5.85-1.71,8.52-2.45a1.33,1.33,0,0,1,.86.27c3.79,2.34,7.62,4.59,11.31,7.07,2.14,1.43,3.92,1,6.14-.43l-12.65-8c1.36-.79,2.32-1.73,4-.52,3.64,2.54,7.58,4.65,11.37,7,2,1.2,3.49.25,5.44-.8L113,69.72c3.89-1.11,7.26-2.08,10.64-3a1.32,1.32,0,0,1,.87.24c3.82,2.39,7.63,4.81,11.45,7.21,2.28,1.43,3.4,1.37,6.09-.42L128.8,65.36c2.39-.68,3.87-1.78,6-.23,3.32,2.44,7,4.38,10.52,6.52,2.08,1.25,3.27,1.13,5.63-.67l-13-8.22c2.18-.72,3.55-1.37,5.47.07a121.45,121.45,0,0,0,10.52,6.52c2.05,1.24,3.48,1,5.5-.74l-12.64-8,.11-.51c2.88-.81,5.76-1.65,8.66-2.41a1.92,1.92,0,0,1,1.22.34q5.46,3.3,10.88,6.66c2.5,1.55,3.34,1.56,6.28-.28-4.26-2.69-8.41-5.3-12.78-8,1.29-.74,2-1,3.33-.12,3.83,2.61,7.9,4.87,11.88,7.26,1.87,1.12,3.2-.18,5.13-.93l-13.43-8.45c3.89-1.11,7.23-2.1,10.6-2.95.38-.1.95.67,1.47,1,3.91,2.37,7.82,4.76,11.76,7.09,1.76,1,3.14-.25,4.79-1.14L183.79,50c1.5-.86,2.39-1.38,3.94-.34,3.84,2.58,7.89,4.88,11.89,7.24,1.73,1,3.17-.08,5.16-.88l-13.13-8.29c1.56-1,2.65-1.16,4.08-.21,3.5,2.3,7.13,4.41,10.72,6.57,2.19,1.31,3.4,1.2,5.81-.6l-13-8.2c3.34-1,6.15-1.8,9-2.6,1.41-.4,2.49-.66,4.05.55a108,108,0,0,0,11.17,6.94c1.67,1,2.91.73,5.14-.94L215.65,41.1c2.18-1.59,3.62-1.7,5.55-.53l10.08,6.14c2.21,1.35,3.39,1.26,5.81-.58l-12.18-7.67,0-.54c3.95-1,7.88-2.15,11.85-3.08a4.1,4.1,0,0,1,2.36.67q14.54,7.08,29,14.23c1.46.72,2.82,1.61,4.23,2.42,0,.23,0,.46-.07.69-2.09.65-4.17,1.33-6.27,2q-20.81,6.24-41.63,12.48-41.81,12.51-83.63,25-28,8.4-56,16.89c-2.53.76-5,1.57-7.6,2.2a3.62,3.62,0,0,1-2.54-.29c-10.78-6.84-21.52-13.76-32.26-20.66C42.28,90.38,42.24,90.23,42,89.83Z"/><path class="cls-1" d="M32.21,103.78c.86.51,1.41.82,1.94,1.16q19.17,12.28,38.33,24.62a5.57,5.57,0,0,0,5.57.78,37.49,37.49,0,0,1,4-1.13c.61,32.46,1.2,64.65,1.81,97.3-1.14-.94-2-1.62-2.78-2.31q-22.5-19.33-45-38.66a4.52,4.52,0,0,1-1.83-3.6q-1-37-2.07-74C32.18,106.63,32.21,105.35,32.21,103.78Z"/><path class="cls-1" d="M283.39,70.63c.51,33.66,1,67.3,1.55,101.43-2.13-1.73-3.92-3.15-5.68-4.61q-21-17.43-42.06-34.86a5.26,5.26,0,0,1-2.19-4.23c-.23-7.88-.6-15.75-.88-23.63-.22-6.13-.42-12.27-.54-18.41a2.07,2.07,0,0,1,1-1.63q24-7.11,48.12-14.08A2.7,2.7,0,0,1,283.39,70.63Z"/><path class="cls-1" d="M8.75,85.83c.66-.27.7-1.53.7-1.53s.49-1.54.89-2.66a6.51,6.51,0,0,1,0-1.48,4.65,4.65,0,0,1,0-1.18c-.3-2.37,0-2.66,1.18-4.14.6-.69,2-1.08,2.93-1.45a20.52,20.52,0,0,1,2.77-.83c4.42-1.15,8.84-2.31,13.26-3.42a15.45,15.45,0,0,0,2.5-.53c1.13-.24,2.28-.41,3.38-.74,2.64-.81,5.23-1.77,7.88-2.53,4.33-1.24,8.7-2.37,13-3.56,3.4-.93,6.76-2.09,10.21-2.73,2.42-.45,4.66-1.36,7-2l16.35-4.43c7.91-2.14,15.8-4.34,23.72-6.43,3.28-.86,6.65-1.39,9.93-2.28,2.91-.78,5.7-2,8.61-2.77,4.08-1.11,8.24-1.93,12.32-3,4.41-1.19,8.77-2.58,13.16-3.84q7.52-2.14,15-4.21Q190.29,25.51,207,21c9.11-2.45,18.24-4.81,27.35-7.25,1.4-.38,2.12-.12,2.08,1.46s0,3.24,0,4.85c0,1.15-.53,1.57-1.54,1.84q-36.18,9.8-72.36,19.63Q127.58,51,92.64,60.6,52.56,71.52,12.47,82.41c-.48.13-.94.32-1.82.63l63.87,40.84-.31.64m-12.89-4c-3.2-2-6.62-3.67-9.47-6.07a39.68,39.68,0,0,0-7.12-4.5,27.7,27.7,0,0,1-3.26-2.64c-.81-.62-1.73-1.1-2.6-1.64-3-1.87-6-3.75-9-5.6-2-1.2-4-2.33-5.92-3.54-3.82-2.37-7.61-4.77-11.41-7.17M73.84,128.2,50.64,71c-2.16-.89-4-.38-5,1.28Z"/><path class="cls-1" d="M303.84,62.71a27.22,27.22,0,0,1-5.75,1.56,63.31,63.31,0,0,0-7.57,2.28c-5.19,1.61-10.2,3.31-15.42,4.81a4.16,4.16,0,0,1-1.74.52c-.29.29-.89.23-1.3.35-2.85.79-5.74,1.43-8.58,2.25s-5.73,2-8.63,2.75c-3.84,1.06-7.76,1.83-11.58,2.92-3.07.88-6.05,2.08-9.09,3-3.32,1.06-6.64,2.19-10,3-6.83,1.6-13.36,4.3-20.19,5.84-4.66,1-9,3-13.69,4s-9.26,2.76-13.9,4.12q-13,3.85-26.11,7.63c-7.79,2.24-15.61,4.37-23.39,6.62-6.94,2-13.84,4.15-20.77,6.2q-9.93,2.91-19.87,5.76c-3.38,1-6.78,1.85-10.63,2.9.14-2,.24-3.87.46-5.76,0-.24.74-.45,1.15-.57l56.57-16.4,43.71-12.74,37.72-11c5.78-1.68,11.54-3.4,17.35-5,6.89-1.86,13.81-3.56,20.71-5.37.27-.27,1.16,0,1.75-.27.29-.14.75-.41.89-.29,1-.22.48-.69,1.48-1.19a1.93,1.93,0,0,1,1.18-.29c3.84-.3,7.08-1.53,10.61-2.48,7.79-2.1,15.52-4.4,23.27-6.62L304.13,58Z"/><path class="cls-1" d="M177,28.12l-.66-1.33,14.79-4.06c7.33-2,14.66-4,22-6,3.73-1,7.48-2,11.22-3l0,0,.61,1.12c-5.94,1.62-11.67,3.39-17.51,4.69-3.28.74-6.35,2.05-9.62,2.76-3.46.74-6.85,1.82-10.27,2.76l-10.25,2.84c-.11,0-.2.16-.3.24Z"/><path class="cls-1" d="M97.13,48.67l38.53-10.45.18.67L97.32,49.35Z"/><path class="cls-1" d="M12,71.86,30.11,67l.14.56-18.14,4.9Z"/><path class="cls-1" d="M51.94,61l15.12-4.1.16.62L52.11,61.58Z"/><path class="cls-1" d="M224.33,13.71l10.44-3,.24.84c-1,.3-1.95.57-2.91.91-.68.24-1.32.6-2,.86a7.89,7.89,0,0,1-5.81.32Z"/><path class="cls-1" d="M177,28.09c-1.86.43-3.71.89-5.58,1.27a2.88,2.88,0,0,1-2-.35c2.55-.26,4.78-2.89,7.56-.9Z"/><path class="cls-1" d="M9,73.82V82.6H8.62V73.82Z"/><path class="cls-1" d="M96.11,49.69l-4,1-.14-.56,4-1.07Z"/><path class="cls-1" d="M143.77,36.14,147.3,35l.2.72-3.58,1Z"/></svg>