<svg id="Layer_1" data-name="Layer 1" xmlns="http://www.w3.org/2000/svg" viewBox="0 0 321 339"><defs><style>.cls-1{fill:#fff;}.cls-2{fill:#ea5353;}.cls-3{fill:#1cc6d3;}.cls-4{fill:#a9c632;}</style></defs><path class="cls-1" d="M256.43,116.74l-.9-2.16c-9.67-22.9-20.89-44.93-36.1-64.73C210,37.54,199.3,26.51,185.83,18.54q-32.39-19.17-64.73.21c-11.52,6.92-21,16.19-29.34,26.6C77.11,63.56,66.3,84,57.14,105.39c-16.88,39.37-27.68,80.53-35.7,122.48C15.88,257,12,286.26,9.21,315.72c-.36,3.84-.64,7.68-1,11.56l295.75-1c-.08-.46-.27-1.31-.35-2.17-2.74-26.93-6.48-53.72-11.43-80.34C284.83,204,274.91,164.91,260.58,127a4.53,4.53,0,0,1,.32-3.34c2.56-4.75,5.29-9.4,8-14.07.44-.76,1-1.46,1.49-2.22,2,1.15,3.82,2.1,5.54,3.21a2,2,0,0,0,3-.31c4.64-4.3,9.37-8.51,14.07-12.75,1.4-1.27,2.81-2.53,4.49-4L283,85.1l10-17.54L287,63.81,276.74,81.46l-13.06-7.55a5.4,5.4,0,0,0-.57.87c-2.4,7.56-4.81,15.11-7.1,22.7a2.45,2.45,0,0,0,.89,2.08c2.25,1.48,4.63,2.75,7.05,4.15C261.44,108.07,259.06,112.19,256.43,116.74Z"/><path class="cls-2" d="M256.43,116.74c2.63-4.55,5-8.67,7.52-13-2.42-1.4-4.8-2.67-7.05-4.15a2.45,2.45,0,0,1-.89-2.08c2.29-7.59,4.7-15.14,7.1-22.7a5.4,5.4,0,0,1,.57-.87l13.06,7.55L287,63.81l6.1,3.75L283,85.1l14.39,8.39c-1.68,1.51-3.09,2.77-4.49,4-4.7,4.24-9.43,8.45-14.07,12.75a2,2,0,0,1-3,.31c-1.72-1.11-3.55-2.06-5.54-3.21-.51.76-1.05,1.46-1.49,2.22-2.69,4.67-5.42,9.32-8,14.07a4.53,4.53,0,0,0-.32,3.34c14.33,37.9,24.25,77,31.64,116.78,4.95,26.62,8.69,53.41,11.43,80.34.08.86.27,1.71.35,2.17l-295.75,1c.32-3.88.6-7.72,1-11.56C12,286.26,15.88,257,21.44,227.87c8-42,18.82-83.11,35.7-122.48,9.16-21.37,20-41.83,34.62-60,8.37-10.41,17.82-19.68,29.34-26.6q32.28-19.41,64.73-.21c13.47,8,24.15,19,33.6,31.31,15.21,19.8,26.43,41.83,36.1,64.73Zm-218.28,139H132v-3l.06-190.35c0-1.45,0-2.9,0-4.34,0-1.84.61-2.79,2.81-2.82,11.2-.16,22.4-.52,33.61-.78,2.32-.06,4.65,0,7.23,0q1.64,98.25,3.24,195.92a5.88,5.88,0,0,0,1.71-2.09q16.52-28.74,33-57.48T247,133.23a5,5,0,0,0,.45-4.87c-1.26-3-2.24-6.16-3.4-9.23-7.76-20.52-16.93-40.35-29.59-58.38-8.69-12.38-18.65-23.58-31.75-31.51-16.35-9.89-33.31-11.54-50.81-3.2-10.23,4.87-18.54,12.21-26,20.61-13.41,15.11-23,32.56-31.11,50.9-9.85,22.32-16.9,45.57-22.5,69.27a615.66,615.66,0,0,0-13,77.74C38.92,248.25,38.55,252,38.15,255.77Zm138.38-.19q-1.23-99.37-2.44-198h-39V255.63h18.34V251l-7.6-.68.08-.94,7.53-.55v-8.47l-7.57-.6,0-1c2.4-.88,5.09,0,7.57-.54v-7.17h-7.71l0-.67c2.35-1.49,5.19-.11,7.79-.93v-6.74c-2.49-.81-5.31.53-7.62-.79l.11-1h7.55V210.54H145.9c0-.5,0-.92,0-.92,2.5-.26,5-.49,7.56-.73V200h-7.55a7.81,7.81,0,0,1,0-1.19c2.53-.35,5.08-.65,7.55-.94V187.11h-7.1l-.11-.8c2.2-1.22,4.88-.06,7.24-.8v-9.78h-7.11l-.16-.84c2.19-1.29,4.9-.65,7.28-1.16v-7.41l-7.19-.66.06-1h7.14v-6.24c-2.4-.72-5,.62-7.21-.58l.1-.74,7.21-.68v-9.54c-2.08,0-4.05,0-6,0a3.64,3.64,0,0,1-1.27-.56c.42-.27.84-.75,1.27-.77,2-.08,4,0,6.2,0v-8.84c-2.51-.91-5.29.5-7.54-.82l.1-.91h7.47v-9.63h-7l-.05-.74c2.15-1.37,4.82.13,7.11-.81v-7.91c-2,0-3.91,0-5.79,0-.44,0-.85-.52-1.28-.8.41-.21.82-.58,1.24-.6,1.94-.06,3.89,0,5.82,0v-6.86c-1.83,0-3.5.06-5.16,0a7.71,7.71,0,0,1-1.91-.61,7.4,7.4,0,0,1,1.78-.76c1.73-.24,3.47-.34,5.35-.5V99.74h-7l-.16-.8c1.93-2.23,5.07-.12,7.23-1.34V91.48h-6.65l-.08-.69c2-1.56,4.58,0,6.71-.91V83.76c-2,0-3.81,0-5.63,0-.35,0-.69-.36-1-.55.34-.27.66-.74,1-.78,1.87-.24,3.74-.36,5.63-.52V76.33h-7.08c2-2.28,4.95-.48,7.09-1.8V70h-7.1l-.09-.68c2.12-1.55,5,.1,7.37-1.25,0-1.33-.08-2.78,0-4.21.05-.55.56-1.07.86-1.6.3.51.82,1,.86,1.55.13,1.41,0,2.84,0,4.47h5.47c-1.55,2.3-3.93.93-5.27,2v4.39H161c-1.46,2.17-3.61,1.12-4.95,2v5.25l4.4-.33v1.61l-4.42.25v6.77h5.1c-1.54,2.3-3.69.71-5.16,1.74v6c1.25,0,2.38-.06,3.5,0,.42,0,.81.44,1.21.67-.38.25-.73.67-1.14.73-1.18.18-2.37.21-3.64.31v6c1.42,0,2.7,0,4,0,.35,0,.69.37,1,.57-.34.28-.66.76-1,.81-1.33.19-2.69.24-4.16.35v6.89c1.55,0,2.91,0,4.27,0,.33,0,.62.45.93.69-.31.24-.61.66-.93.68-1.42.07-2.84,0-4.34,0v7.77c1.56,1.52,4.31-.85,5.54,2.28h-5.46v9.22h5.14l.15.79c-1.43,1.46-3.74-.08-5.42,1v8.72h5.73c-1.54,2.2-3.9.68-5.7,1.59v9.29c1.61,0,3.06,0,4.5,0,.42,0,.82.38,1.24.58-.43.29-.84.8-1.28.83-1.49.1-3,0-4.5,0v6.66c1.64,0,3.15-.05,4.65,0,.4,0,.76.48,1.14.74-.38.25-.75.69-1.13.71-1.56.08-3.13,0-4.66,0v7.79h6.34c-1.94,2.51-4.49,1.15-6.33,2.09v9.43h6.18c-1.48,2.74-4.21,1-6.18,2v10.63c1.62,0,3.06-.07,4.49,0a5.89,5.89,0,0,1,1.75.78,6,6,0,0,1-1.77.89c-1.48.19-3,.18-4.52.25v9.17h6.29a8.51,8.51,0,0,1-.06,1.07c-2.05.2-4.1.34-6.39.51V221c1.84,0,3.65,0,5.46,0a4.51,4.51,0,0,1,1.43.64c-.5.29-1,.79-1.51.82-1.8.11-3.61,0-5.56,0v7.23a30.61,30.61,0,0,1,3.47,0,34.39,34.39,0,0,1,3.6.76c-1.16.22-2.32.53-3.5.64a35,35,0,0,1-3.55,0v7.28h7a8.66,8.66,0,0,1,0,1.26c-2.32.3-4.65.54-7,.79v8.53c1.62,0,3.06,0,4.5,0,2.82,0,2.82,0,2.78,1.87h-7.4v4.66ZM251.34,140.2,185,255.31h89.42C270.2,216.24,263,178.13,251.34,140.2Z"/><path class="cls-3" d="M38.15,255.77c.4-3.82.77-7.52,1.15-11.21a615.66,615.66,0,0,1,13-77.74c5.6-23.7,12.65-46.95,22.5-69.27,8.09-18.34,17.7-35.79,31.11-50.9,7.45-8.4,15.76-15.74,26-20.61,17.5-8.34,34.46-6.69,50.81,3.2,13.1,7.93,23.06,19.13,31.75,31.51,12.66,18,21.83,37.86,29.59,58.38,1.16,3.07,2.14,6.2,3.4,9.23a5,5,0,0,1-.45,4.87Q230.31,162,213.76,190.87t-33,57.48a5.88,5.88,0,0,1-1.71,2.09q-1.62-97.81-3.24-195.92c-2.58,0-4.91-.05-7.23,0-11.21.26-22.41.62-33.61.78-2.2,0-2.78,1-2.81,2.82,0,1.44,0,2.89,0,4.34L132,252.82v3Z"/><path class="cls-4" d="M176.53,255.58h-21.4v-4.66h7.4c0-1.86,0-1.86-2.78-1.87-1.44,0-2.88,0-4.5,0v-8.53c2.35-.25,4.68-.49,7-.79a8.66,8.66,0,0,0,0-1.26h-7v-7.28a35,35,0,0,0,3.55,0c1.18-.11,2.34-.42,3.5-.64a34.39,34.39,0,0,0-3.6-.76,30.61,30.61,0,0,0-3.47,0V222.5c1.95,0,3.76.07,5.56,0,.52,0,1-.53,1.51-.82a4.51,4.51,0,0,0-1.43-.64c-1.81-.07-3.62,0-5.46,0V210.8c2.29-.17,4.34-.31,6.39-.51a8.51,8.51,0,0,0,.06-1.07h-6.29v-9.17c1.53-.07,3-.06,4.52-.25a6,6,0,0,0,1.77-.89,5.89,5.89,0,0,0-1.75-.78c-1.43-.11-2.87,0-4.49,0V187.46c2-1,4.7.72,6.18-2H155.6V176c1.84-.94,4.39.42,6.33-2.09h-6.34v-7.79c1.53,0,3.1.05,4.66,0,.38,0,.75-.46,1.13-.71-.38-.26-.74-.71-1.14-.74-1.5-.08-3,0-4.65,0V158c1.51,0,3,.06,4.5,0,.44,0,.85-.54,1.28-.83-.42-.2-.82-.56-1.24-.58-1.44-.08-2.89,0-4.5,0v-9.29c1.8-.91,4.16.61,5.7-1.59H155.6v-8.72c1.68-1.11,4,.43,5.42-1l-.15-.79h-5.14v-9.22h5.46c-1.23-3.13-4-.76-5.54-2.28v-7.77c1.5,0,2.92,0,4.34,0,.32,0,.62-.44.93-.68-.31-.24-.6-.67-.93-.69-1.36-.08-2.72,0-4.27,0v-6.89c1.47-.11,2.83-.16,4.16-.35.37-.05.69-.53,1-.81-.34-.2-.68-.55-1-.57-1.28-.07-2.56,0-4,0v-6c1.27-.1,2.46-.13,3.64-.31.41-.06.76-.48,1.14-.73-.4-.23-.79-.63-1.21-.67-1.12-.09-2.25,0-3.5,0V92c1.47-1,3.62.56,5.16-1.74H156V83.46l4.42-.25V81.6l-4.4.33V76.68c1.34-.89,3.49.16,4.95-2h-4.9V70.28c1.34-1.11,3.72.26,5.27-2H155.9c0-1.63.09-3.06,0-4.47,0-.54-.56-1-.86-1.55-.3.53-.81,1.05-.86,1.6-.12,1.43,0,2.88,0,4.21-2.4,1.35-5.25-.3-7.37,1.25l.09.68h7.1v4.57c-2.14,1.32-5.06-.48-7.09,1.8h7.08v5.56c-1.89.16-3.76.28-5.63.52-.37,0-.69.51-1,.78.34.19.68.54,1,.55,1.82.05,3.65,0,5.63,0v6.12c-2.13,1-4.74-.65-6.71.91l.08.69h6.65V97.6c-2.16,1.22-5.3-.89-7.23,1.34l.16.8h7v5.91c-1.88.16-3.62.26-5.35.5a7.4,7.4,0,0,0-1.78.76,7.71,7.71,0,0,0,1.91.61c1.66.09,3.33,0,5.16,0v6.86c-1.93,0-3.88,0-5.82,0-.42,0-.83.39-1.24.6.43.28.84.78,1.28.8,1.88.09,3.77,0,5.79,0v7.91c-2.29.94-5-.56-7.11.81l.05.74h7V135h-7.47l-.1.91c2.25,1.32,5-.09,7.54.82v8.84c-2.16,0-4.18-.05-6.2,0-.43,0-.85.5-1.27.77a3.64,3.64,0,0,0,1.27.56c2,.06,3.93,0,6,0v9.54l-7.21.68-.1.74c2.19,1.2,4.81-.14,7.21.58v6.24h-7.14l-.06,1,7.19.66v7.41c-2.38.51-5.09-.13-7.28,1.16l.16.84h7.11v9.78c-2.36.74-5-.42-7.24.8l.11.8h7.1v10.73c-2.47.29-5,.59-7.55.94a7.81,7.81,0,0,0,0,1.19h7.55v8.92c-2.57.24-5.06.47-7.56.73,0,0,0,.42,0,.92h7.58V221h-7.55l-.11,1c2.31,1.32,5.13,0,7.62.79v6.74c-2.6.82-5.44-.56-7.79.93l0,.67h7.71v7.17c-2.48.58-5.17-.34-7.57.54l0,1,7.57.6v8.47l-7.53.55-.08.94,7.6.68v4.62H135.07v-198h39Q175.31,156.22,176.53,255.58Z"/><path class="cls-3" d="M251.34,140.2c11.7,37.93,18.86,76,23,115.11H185Z"/></svg>