<svg id="Layer_1" data-name="Layer 1" xmlns="http://www.w3.org/2000/svg" viewBox="0 0 177 339"><defs><style>.cls-1{fill:#fff;}.cls-2{fill:#a9c632;}.cls-3{fill:#ea5353;}</style></defs><path class="cls-1" d="M72.32,259.6c-5.87,1.45-11,2.46-15.94,4C46.24,266.71,37.2,271.75,30.32,280c-9.76,11.78-9,26,1.92,36.68,7,6.92,15.79,10.51,25.24,12.55a76.86,76.86,0,0,0,38.39-1.55c8.88-2.6,17.06-6.63,23.84-13.09,6-5.67,10.24-12.24,10.46-20.77.28-11.05-5.63-18.65-14.26-24.5-9-6.14-19.33-8.65-30.09-9.48-1.43-.11-2.35-.15-2.25-2.05.48-9.14.86-18.28,1.21-27.41.49-12.57.92-25.13,1.37-37.69.44-12.34.91-24.68,1.32-37q.73-22.07,1.35-44.16c0-1.38.43-1.91,1.8-2.17,16.14-3.15,32.25-6.38,48.38-9.53,6.43-1.26,12.88-2.36,19.31-3.57,1.37-.25,2.79-.41,3.27-2.19.92-3.35,2-6.68,3-10,.51-1.7,1.07-3.4,1.79-5.72l-14,2.57c-.14-.53-.26-.88-.32-1.23-3-17.07-6-34.15-9.08-51.19a12.69,12.69,0,0,0-2.73-5.92A27.55,27.55,0,0,0,133.4,17C125,12.21,115.56,10.48,106,9.72a154,154,0,0,0-57.79,6.4,90.9,90.9,0,0,0-27,12.94C12.42,35.4,9.11,43.78,10.88,54.34c.54,3.22,1.07,6.45,1.5,9.69C14.21,77.67,16,91.32,17.8,105c.68,5.09,1.39,10.17,2.19,15.24.36,2.22,1.42,2.71,3.5,2a14.77,14.77,0,0,1,2.32-.71c11.2-2,22.4-4,33.59-6,5.6-1,11.17-2.13,17-3.26-.18,3.61-.39,6.87-.5,10.13q-.69,21.3-1.34,42.6-.69,22-1.34,44c-.34,11.67-.67,23.35-.92,35C72.23,249.22,72.32,254.57,72.32,259.6Z"/><path class="cls-2" d="M72.32,259.6c0-5-.09-10.38,0-15.73.25-11.68.58-23.36.92-35q.63-22,1.34-44,.66-21.3,1.34-42.6c.11-3.26.32-6.52.5-10.13-5.87,1.13-11.44,2.24-17,3.26-11.19,2-22.39,4-33.59,6a14.77,14.77,0,0,0-2.32.71c-2.08.73-3.14.24-3.5-2-.8-5.07-1.51-10.15-2.19-15.24C16,91.32,14.21,77.67,12.38,64c-.43-3.24-1-6.47-1.5-9.69C9.11,43.78,12.42,35.4,21.18,29.06A90.9,90.9,0,0,1,48.23,16.12,154,154,0,0,1,106,9.72c9.54.76,18.93,2.49,27.38,7.3a27.55,27.55,0,0,1,6.87,5.57A12.69,12.69,0,0,1,143,28.51c3.13,17,6.08,34.12,9.08,51.19.06.35.18.7.32,1.23l14-2.57c-.72,2.32-1.28,4-1.79,5.72-1,3.33-2.07,6.66-3,10-.48,1.78-1.9,1.94-3.27,2.19-6.43,1.21-12.88,2.31-19.31,3.57-16.13,3.15-32.24,6.38-48.38,9.53-1.37.26-1.76.79-1.8,2.17q-.6,22.08-1.35,44.16c-.41,12.34-.88,24.68-1.32,37-.45,12.56-.88,25.12-1.37,37.69-.35,9.13-.73,18.27-1.21,27.41-.1,1.9.82,1.94,2.25,2.05,10.76.83,21,3.34,30.09,9.48,8.63,5.85,14.54,13.45,14.26,24.5-.22,8.53-4.51,15.1-10.46,20.77-6.78,6.46-15,10.49-23.84,13.09a76.86,76.86,0,0,1-38.39,1.55c-9.45-2-18.19-5.63-25.24-12.55C21.34,306,20.56,291.82,30.32,280c6.88-8.29,15.92-13.33,26.06-16.45C61.33,262.06,66.45,261.05,72.32,259.6ZM22.24,113.52c1.4-2.61,2.14-5.71,4.09-7.14,2.1-1.55,5.34-1.54,8.09-2.2l.65-.13c18.27-3.41,36.56-6.71,54.81-10.26,16.19-3.15,32.34-6.58,48.5-9.9,3.32-.68,6.63-1.39,10-2.1,0-.53,0-.83-.06-1.11Q144,56.86,139.69,33.05c-.64-3.61-1.17-7.25-4.5-9.57a47.26,47.26,0,0,0-5-3.28c-7-3.6-14.58-5.15-22.29-5.91a148.49,148.49,0,0,0-69.23,9.3c-7.8,3-15.25,6.82-20.91,13.26a14,14,0,0,0-3.65,10.58c.66,7.58,1.43,15.15,2.37,22.69,1.27,10.17,2.75,20.31,4.12,30.47C21.13,104.83,21.67,109.08,22.24,113.52ZM71.36,272.3c.12-2.64.24-5.75.44-8.87.1-1.54-.55-2-2-1.72-2.34.46-4.69.81-7,1.34-10.4,2.4-19.88,6.67-27.75,14-5.62,5.27-9.4,11.57-9.5,19.51-.13,9.52,4.66,16.57,11.88,22.14,8.88,6.86,19.26,9.86,30.23,10.94a71.82,71.82,0,0,0,29.07-3.17c9.08-2.9,17.19-7.37,23.74-14.45,9.5-10.3,10.42-23.79,1.64-34.28-9.57-11.43-22.79-15.34-37.08-16.46-.46,0-1.39,1-1.46,1.56-.27,2.21-.19,4.46-.38,6.68-.22,2.75,0,2.73,2.62,3.53a31.51,31.51,0,0,1,8.11,3.45c4.3,2.78,4.67,7.61,1.08,11.19a13.71,13.71,0,0,1-4.85,3.43A62,62,0,0,1,78.8,294a25.68,25.68,0,0,1-16.74-3.22c-6-3.5-6.22-9.82-.39-13.6C64.6,275.24,68,274,71.36,272.3Zm7.17-160.5c-1.74,56.48-3.47,112.7-5.21,169.06h7.22c.21-4.42.44-8.78.61-13.14q.69-17.84,1.34-35.66l1.35-35.89q.66-17.61,1.34-35.21c.48-12.48,1-25,1.39-37.44.14-4.36,0-8.74,0-13.28Z"/><path class="cls-3" d="M22.24,113.52c-.57-4.44-1.11-8.69-1.68-12.93-1.37-10.16-2.85-20.3-4.12-30.47C15.5,62.58,14.73,55,14.07,47.43a14,14,0,0,1,3.65-10.58c5.66-6.44,13.11-10.23,20.91-13.26a148.49,148.49,0,0,1,69.23-9.3c7.71.76,15.31,2.31,22.29,5.91a47.26,47.26,0,0,1,5,3.28c3.33,2.32,3.86,6,4.5,9.57Q144,56.87,148.3,80.68c0,.28,0,.58.06,1.11-3.35.71-6.66,1.42-10,2.1-16.16,3.32-32.31,6.75-48.5,9.9-18.25,3.55-36.54,6.85-54.81,10.26l-.65.13c-2.75.66-6,.65-8.09,2.2C24.38,107.81,23.64,110.91,22.24,113.52Z"/><path class="cls-3" d="M71.36,272.3c-3.41,1.68-6.76,2.94-9.69,4.85-5.83,3.78-5.59,10.1.39,13.6A25.68,25.68,0,0,0,78.8,294a62,62,0,0,0,11.36-2.81A13.71,13.71,0,0,0,95,287.73c3.59-3.58,3.22-8.41-1.08-11.19a31.51,31.51,0,0,0-8.11-3.45c-2.65-.8-2.84-.78-2.62-3.53.19-2.22.11-4.47.38-6.68.07-.59,1-1.6,1.46-1.56,14.29,1.12,27.51,5,37.08,16.46,8.78,10.49,7.86,24-1.64,34.28-6.55,7.08-14.66,11.55-23.74,14.45a71.82,71.82,0,0,1-29.07,3.17c-11-1.08-21.35-4.08-30.23-10.94-7.22-5.57-12-12.62-11.88-22.14.1-7.94,3.88-14.24,9.5-19.51,7.87-7.37,17.35-11.64,27.75-14,2.32-.53,4.67-.88,7-1.34,1.43-.29,2.08.18,2,1.72C71.6,266.55,71.48,269.66,71.36,272.3Z"/><path class="cls-3" d="M78.53,111.8l8.06-1.56c0,4.54.12,8.92,0,13.28-.41,12.48-.91,25-1.39,37.44q-.66,17.61-1.34,35.21l-1.35,35.89q-.66,17.82-1.34,35.66c-.17,4.36-.4,8.72-.61,13.14H73.32C75.06,224.5,76.79,168.28,78.53,111.8Z"/><ellipse class="cls-3" cx="76.93" cy="280.58" rx="3.75" ry="2.17" transform="translate(-26.23 8.55) rotate(-5.43)"/></svg>