<svg id="Layer_1" data-name="Layer 1" xmlns="http://www.w3.org/2000/svg" viewBox="0 0 312 339"><defs><style>.cls-1{fill:#1cc6d3;}.cls-2{fill:#a9c632;}.cls-3{fill:#ea5353;}</style></defs><path class="cls-1" d="M168.18,45.83C202.46,50.59,239,65.3,258,82.51c2.92-2.5,5.84-5,8.8-7.55-.72-1.15-1.53-2.32-2.21-3.56-1.69-3.05-1.63-5.31.13-6.92s4.08-1.65,6.76.35a66,66,0,0,1,7.67,6.8c4.51,4.62,8.84,9.42,13.23,14.16,1.83,2,2.59,4.2,1.44,6.76C292.3,95.93,288,96.62,285,94c-1.44-1.29-2.77-2.7-4.11-4L270.47,96c.32.48.58.91.88,1.31,25.94,34.42,34.25,72.79,25,114.75-11.45,51.88-52.08,94.34-103.7,108.71-38.79,10.8-76.22,7.05-110.87-13.71C40.1,282.07,18.17,244.37,16,196c-1.71-38.75,11.7-72.64,37.49-101.48,19.64-22,44-36.56,72.46-44.26.44-.12.87-.28,1.31-.4,11.36-3.06,23.46-3.74,23.74-4M35.72,190.89c0,23.62,5.9,45.66,19.3,65.14,25.89,37.62,62.19,54.91,107.57,51.59,63-4.6,113.62-57,117.31-119.9,3.11-53-29-105.81-88.54-120.65-27.57-6.87-54.43-3.72-80.24,8C65.54,95.66,35.75,141.56,35.72,190.89Z"/><path class="cls-2" d="M35.72,190.89c0-49.33,29.82-95.23,75.4-115.85,25.81-11.69,52.67-14.84,80.24-8C250.87,81.91,283,134.7,279.9,187.72c-3.69,62.94-54.33,115.3-117.31,119.9C117.21,310.94,80.91,293.65,55,256,41.62,236.55,35.73,214.51,35.72,190.89Zm128.51-59.31-.26,0c0-3.08,0-6.17,0-9.25a15.76,15.76,0,0,0-.43-3.56,7.49,7.49,0,0,0-14.58-.3,16.27,16.27,0,0,0-.61,3.87,256.54,256.54,0,0,0,.79,38c.17,1.59-.18,2.33-1.68,2.9a14,14,0,0,0-3.47,2.17,12.55,12.55,0,0,0-4.27,13.68c2.05,6.47,6.94,9.91,13.22,11.11,7.4,1.41,15.45-1.61,18.45-10.57,2.23-6.68-1.67-13.95-8.86-16.75-1-.4-1.33-.79-1.21-1.95C162.33,151.13,163.27,141.35,164.23,131.58Zm58.3-5.29a6.07,6.07,0,0,0,1.5-.44c3.34-1.86,6.71-3.68,10-5.68a4.71,4.71,0,0,0,1.52-6.85c-1.59-2.18-4.64-2.47-7-.64-.81.62-1.59,1.29-2.36,2-2,1.84-4.08,3.66-6.06,5.54a3.46,3.46,0,0,0-1,4.07C219.67,125.61,220.77,126.24,222.53,126.29ZM151.38,77.68c.29,3.3.49,6.26.81,9.21a4.67,4.67,0,0,0,4.55,4.3c3.11.07,5.39-2.77,4.62-6.15a95.82,95.82,0,0,0-2.76-9.33,3.64,3.64,0,0,0-4.72-2.28C152.17,74,151.31,75.62,151.38,77.68Zm-49.67,48.2c-.92-1.35-1.39-2.76-2.37-3.35-3-1.81-4.91-4.54-6.94-7.2-1.51-2-3.86-2.49-5.71-1.17a4,4,0,0,0-.64,5.9,30.55,30.55,0,0,0,3,3.48c2,1.82,4,3.58,6.09,5.23a3.28,3.28,0,0,0,4,.22A16.52,16.52,0,0,0,101.71,125.88Zm46.16,161-.33,0a30.7,30.7,0,0,0,.6,4.21,4.21,4.21,0,0,0,8.21-.72,5.38,5.38,0,0,0,.09-1.87c-.59-3.07-1.2-6.13-1.92-9.17-.54-2.34-2.16-3.54-4.11-3.25s-3.11,2-3.07,4.31c0,.74.15,1.48.21,2.21C147.66,284.05,147.76,285.46,147.87,286.88Zm104.31-96.83a4.36,4.36,0,1,0,.77-8.67,75,75,0,0,0-8.2.41,4.09,4.09,0,0,0-3.7,3.5,4,4,0,0,0,2.47,4.26,7.87,7.87,0,0,0,2.5.48C248.07,190.09,250.13,190.05,252.18,190.05Zm-31.34,69.82c-.54-1.24-.68-2.3-1.28-2.84-2.72-2.42-5.48-4.8-8.4-7a3.11,3.11,0,0,0-4.24.34,3,3,0,0,0-.2,4.24c2.39,2.82,4.93,5.51,7.59,8.08a3.15,3.15,0,0,0,4.14.15A15.31,15.31,0,0,0,220.84,259.87Zm-159.32-70v.08c1.88,0,3.77.1,5.64,0a3.56,3.56,0,1,0-.33-7.09c-3.59.16-7.17.45-10.73.82-2.19.23-3.45,1.53-3.41,3.15s1.44,2.91,3.71,3C58.1,189.91,59.81,189.83,61.52,189.83Zm33,59c.06-1.86-.89-2.89-2.23-2.62a5.62,5.62,0,0,0-2.52,1.29c-2.41,2.1-4.72,4.31-7.06,6.49a2.82,2.82,0,0,0-.25,4.11,2.77,2.77,0,0,0,4-.2c2.27-2.34,4.54-4.67,6.74-7.06A12.86,12.86,0,0,0,94.53,248.84Z"/><path class="cls-3" d="M164.23,131.58c-1,9.77-1.9,19.55-2.93,29.32-.12,1.16.19,1.55,1.21,1.95,7.19,2.8,11.09,10.07,8.86,16.75-3,9-11.05,12-18.45,10.57-6.28-1.2-11.17-4.64-13.22-11.11A12.55,12.55,0,0,1,144,165.38a14,14,0,0,1,3.47-2.17c1.5-.57,1.85-1.31,1.68-2.9a256.54,256.54,0,0,1-.79-38,16.27,16.27,0,0,1,.61-3.87,7.49,7.49,0,0,1,14.58.3,15.76,15.76,0,0,1,.43,3.56c.06,3.08,0,6.17,0,9.25Z"/><path class="cls-3" d="M222.53,126.29c-1.76-.05-2.86-.68-3.41-2a3.46,3.46,0,0,1,1-4.07c2-1.88,4-3.7,6.06-5.54.77-.68,1.55-1.35,2.36-2,2.37-1.83,5.42-1.54,7,.64a4.71,4.71,0,0,1-1.52,6.85c-3.25,2-6.62,3.82-10,5.68A6.07,6.07,0,0,1,222.53,126.29Z"/><path class="cls-3" d="M151.38,77.68c-.07-2.06.79-3.64,2.5-4.25a3.64,3.64,0,0,1,4.72,2.28A95.82,95.82,0,0,1,161.36,85c.77,3.38-1.51,6.22-4.62,6.15a4.67,4.67,0,0,1-4.55-4.3C151.87,83.94,151.67,81,151.38,77.68Z"/><path class="cls-3" d="M101.71,125.88A16.52,16.52,0,0,1,99.2,129a3.28,3.28,0,0,1-4-.22c-2.11-1.65-4.13-3.41-6.09-5.23a30.55,30.55,0,0,1-3-3.48,4,4,0,0,1,.64-5.9c1.85-1.32,4.2-.8,5.71,1.17,2,2.66,3.95,5.39,6.94,7.2C100.32,123.12,100.79,124.53,101.71,125.88Z"/><path class="cls-3" d="M147.87,286.88c-.11-1.42-.21-2.83-.32-4.25-.06-.73-.2-1.47-.21-2.21,0-2.35,1.18-4,3.07-4.31s3.57.91,4.11,3.25c.72,3,1.33,6.1,1.92,9.17a5.38,5.38,0,0,1-.09,1.87,4.21,4.21,0,0,1-8.21.72,30.7,30.7,0,0,1-.6-4.21Z"/><path class="cls-3" d="M252.18,190.05c-2.05,0-4.11,0-6.16,0a7.87,7.87,0,0,1-2.5-.48,4,4,0,0,1-2.47-4.26,4.09,4.09,0,0,1,3.7-3.5,75,75,0,0,1,8.2-.41,4.36,4.36,0,1,1-.77,8.67Z"/><path class="cls-3" d="M220.84,259.87a15.31,15.31,0,0,1-2.39,3,3.15,3.15,0,0,1-4.14-.15c-2.66-2.57-5.2-5.26-7.59-8.08a3,3,0,0,1,.2-4.24,3.11,3.11,0,0,1,4.24-.34c2.92,2.17,5.68,4.55,8.4,7C220.16,257.57,220.3,258.63,220.84,259.87Z"/><path class="cls-3" d="M61.52,189.83c-1.71,0-3.42.08-5.12,0-2.27-.13-3.67-1.34-3.71-3s1.22-2.92,3.41-3.15c3.56-.37,7.14-.66,10.73-.82a3.56,3.56,0,1,1,.33,7.09c-1.87.12-3.76,0-5.64,0Z"/><path class="cls-3" d="M94.53,248.84a12.86,12.86,0,0,1-1.33,2c-2.2,2.39-4.47,4.72-6.74,7.06a2.77,2.77,0,0,1-4,.2,2.82,2.82,0,0,1,.25-4.11c2.34-2.18,4.65-4.39,7.06-6.49a5.62,5.62,0,0,1,2.52-1.29C93.64,246,94.59,247,94.53,248.84Z"/><rect class="cls-1" x="150.09" y="31.55" width="17.14" height="30.47"/><ellipse class="cls-1" cx="158.66" cy="22.98" rx="27.62" ry="12.38"/></svg>